Coordinates
version=1
nRows=10
nColumns=40
inDegrees=yes

Units are S.I. units (second, meters, Newtons, ...)
Angles are in degrees.

endheader
time	pelvis_tilt	pelvis_list	pelvis_rotation	pelvis_tx	pelvis_ty	pelvis_tz	hip_flexion_r	hip_adduction_r	hip_rotation_r	knee_angle_r	knee_angle_r_beta	ankle_angle_r	subtalar_angle_r	mtp_angle_r	hip_flexion_l	hip_adduction_l	hip_rotation_l	knee_angle_l	knee_angle_l_beta	ankle_angle_l	subtalar_angle_l	mtp_angle_l	lumbar_extension	lumbar_bending	lumbar_rotation	arm_flex_r	arm_add_r	arm_rot_r	elbow_flex_r	pro_sup_r	wrist_flex_r	wrist_dev_r	arm_flex_l	arm_add_l	arm_rot_l	elbow_flex_l	pro_sup_l	wrist_flex_l	wrist_dev_l
      4.19128571	     -3.90696050	     -4.93926676	      4.95740225	      1.05416202	      0.93276782	      0.51272040	     10.86339051	      3.65564529	    -18.19729600	     14.55558604	     14.55558604	     10.63178289	      6.09624943	     -2.41956673	     34.67369363	    -12.29021709	     -0.60774394	     41.85493908	     41.85493908	      8.84165520	    -17.77228681	     11.31047162	    -12.39647217	      5.35766166	      1.61926703	     25.81048904	    -19.02036907	     -1.68050090	     70.49227089	     44.79039291	      0.00000000	      0.00000000	     25.35248261	    -10.33394640	      5.89734976	     28.59710168	     45.76453055	      0.00000000	      0.00000000
      4.20507143	     -4.12757819	     -4.94855560	      5.06747636	      1.05218754	      0.93258611	      0.51250769	     10.60958809	      3.72130801	    -18.25893266	     14.10834389	     14.10834389	     10.76730237	      6.22331696	     -2.48364223	     34.35392660	    -11.80507845	     -0.45458027	     37.65367732	     37.65367732	      9.00342521	    -16.58585485	     11.35845345	    -12.24970549	      5.41081952	      1.77625243	     26.94172556	    -18.79575904	     -1.53446243	     70.95545548	     44.78139676	      0.00000000	      0.00000000	     25.63585844	    -10.19804415	      5.95746955	     28.65091777	     45.76133045	      0.00000000	      0.00000000
      4.21885714	     -4.36484078	     -4.99157076	      5.16848883	      1.05034720	      0.93221830	      0.51208362	     10.40402585	      3.78462653	    -18.38253685	     13.73892771	     13.73892771	     10.94254416	      6.45106958	     -2.61041266	     34.03476585	    -11.39345028	     -0.29007727	     33.69397230	     33.69397230	      9.15834768	    -14.99102359	     11.45424130	    -12.04796669	      5.52517322	      1.93590297	     28.05294822	    -18.64086801	     -1.32886513	     71.35030541	     44.77022987	      0.00000000	      0.00000000	     25.87979170	    -10.03729081	      6.03309470	     28.62316177	     45.75500023	      0.00000000	      0.00000000
      4.23264286	     -4.33082788	     -5.00807995	      5.22222884	      1.04880878	      0.93219860	      0.51155745	      9.82144370	      3.85056154	    -18.56655922	     13.25835255	     13.25835255	     11.11658929	      6.96556374	     -2.82526438	     33.33560890	    -11.08669220	     -0.35709204	     29.95112453	     29.95112453	      9.19948501	    -13.17801012	     11.22859322	    -12.12380396	      5.65411752	      1.97524265	     29.13076004	    -18.33392775	     -0.75355820	     71.62990275	     44.75364228	      0.00000000	      0.00000000	     26.22688013	    -10.13255743	      6.13473980	     28.40693158	     45.74675662	      0.00000000	      0.00000000
      4.24642857	     -4.41259540	     -5.23204922	      5.32253775	      1.04727395	      0.93175411	      0.51087369	      9.42953812	      4.08957449	    -18.92633988	     12.85871442	     12.85871442	     11.15502243	      7.51846253	     -3.37372878	     32.99002021	    -10.99657306	     -0.37013196	     26.82855208	     26.82855208	      8.73943220	    -11.39509926	      9.99665837	    -11.95918556	      5.96530640	      1.79041847	     30.58401098	    -18.35600662	      0.77398460	     71.32308006	     44.74669239	      0.00000000	      0.00000000	     26.39498618	    -10.09387513	      6.41344042	     27.90362868	     45.71067122	      0.00000000	      0.00000000
      4.26021429	     -4.51957813	     -5.29950365	      5.33439598	      1.04581710	      0.93131889	      0.50999140	      9.20474019	      4.14146031	    -18.88011839	     12.76682672	     12.76682672	     11.42323419	      7.52414384	     -3.53574591	     32.69165326	    -10.74046109	     -0.40702720	     24.28807558	     24.28807558	      8.77875969	    -10.07671901	     10.27624620	    -11.81435669	      6.12074931	      1.97347687	     31.39832821	    -18.26989611	      0.92100334	     71.56058519	     44.74190050	      0.00000000	      0.00000000	     26.55589931	     -9.99288279	      6.46283395	     27.93954906	     45.70623496	      0.00000000	      0.00000000
      4.27400000	     -4.59956209	     -5.52081755	      5.36414608	      1.04438285	      0.93077725	      0.50901694	      9.00207513	      4.33841870	    -18.90377039	     12.74874022	     12.74874022	     11.67291309	      7.52943563	     -3.68238353	     32.62441216	    -10.66393394	     -0.43378784	     22.57453118	     22.57453118	      8.80494478	     -9.07053658	     10.45397598	    -11.67891966	      6.44101526	      2.14587706	     32.18243108	    -18.18560256	      1.05015362	     71.78236318	     44.73648647	      0.00000000	      0.00000000	     26.80462163	     -9.89435616	      6.50675918	     28.01372581	     45.70330029	      0.00000000	      0.00000000
      4.28778571	     -4.55944690	     -5.51496794	      5.32649019	      1.04327675	      0.93063490	      0.50788214	      8.57512506	      4.31742257	    -18.81583787	     12.63357443	     12.63357443	     11.94031771	      7.63686082	     -3.80558166	     32.27569053	    -10.44853351	     -0.86635629	     21.20544964	     21.20544964	      8.81450937	     -8.20100676	     10.57436583	    -11.66065388	      6.47709780	      2.22088043	     32.81005428	    -18.09001128	      1.31659928	     71.93083513	     44.72904007	      0.00000000	      0.00000000	     26.92478395	     -9.89412719	      6.55982264	     27.95855639	     45.69724470	      0.00000000	      0.00000000
      4.30157143	     -4.48500500	     -5.54738332	      5.26592587	      1.04231394	      0.93043708	      0.50660411	      8.13231630	      4.31726212	    -18.73754760	     12.57691411	     12.57691411	     12.22829325	      7.75700242	     -3.92469667	     32.04484999	    -10.29356645	     -1.33551313	     20.57687045	     20.57687045	      8.84473079	     -7.72278605	     10.53308513	    -11.65311263	      6.55155935	      2.28138251	     33.35490899	    -18.02716563	      1.62259490	     72.01129304	     44.72210236	      0.00000000	      0.00000000	     27.05452980	     -9.91787140	      6.61363063	     27.88482722	     45.69173619	      0.00000000	      0.00000000
      4.31535714	     -4.50289222	     -5.64714447	      5.26230582	      1.04156104	      0.93000354	      0.50513072	      7.82028581	      4.35738273	    -18.69374487	     12.59372076	     12.59372076	     12.51306596	      7.75834393	     -4.01678656	     32.03165151	    -10.13983313	     -1.53951920	     20.56609234	     20.56609234	      8.84258269	     -7.76551741	     10.52465554	    -11.42236411	      6.66119097	      2.30737841	     33.44884487	    -18.02652253	      1.65334377	     72.03439838	     44.72112206	      0.00000000	      0.00000000	     27.10873464	     -9.94538335	      6.61528806	     27.89276376	     45.69245192	      0.00000000	      0.00000000
